<svg width="520" height="480" viewBox="0 0 520 480" fill="none" xmlns="http://www.w3.org/2000/svg">
<path d="M520 367.109H0V367.349H520V367.109Z" fill="#D6D6D6"/>
<path d="M129.819 381.633H95.3721V381.873H129.819V381.633Z" fill="#D6D6D6"/>
<path d="M84.4705 381.633H64.5098V381.873H84.4705V381.633Z" fill="#D6D6D6"/>
<path d="M218.976 385.164H199.017V385.404H218.976V385.164Z" fill="#D6D6D6"/>
<path d="M323.041 390.523H278.12V390.763H323.041V390.523Z" fill="#D6D6D6"/>
<path d="M268.861 390.523H262.274V390.763H268.861V390.523Z" fill="#D6D6D6"/>
<path d="M471.477 385.164H374.054V385.404H471.477V385.164Z" fill="#D6D6D6"/>
<path d="M246.495 324.292H45.6717C42.3988 324.292 39.7354 321.833 39.7354 318.812V58.2375C39.7354 55.2164 42.3988 52.7578 45.6717 52.7578H246.495C249.766 52.7578 252.43 55.2164 252.43 58.2375V318.812C252.43 321.833 249.766 324.292 246.495 324.292ZM45.6717 52.9988C42.5413 52.9988 39.9954 55.3489 39.9954 58.2385V318.813C39.9954 321.703 42.5413 324.053 45.6717 324.053H246.495C249.624 324.053 252.17 321.703 252.17 318.813V58.2375C252.17 55.3489 249.624 52.9978 246.495 52.9978L45.6717 52.9988Z" fill="#D6D6D6"/>
<path d="M471.443 324.292H270.621C267.349 324.292 264.686 321.833 264.686 318.812V58.2375C264.686 55.2164 267.349 52.7578 270.621 52.7578H471.443C474.717 52.7578 477.379 55.2164 477.379 58.2375V318.812C477.38 321.833 474.717 324.292 471.443 324.292ZM270.621 52.9988C267.491 52.9988 264.946 55.3489 264.946 58.2385V318.813C264.946 321.703 267.491 324.053 270.621 324.053H471.443C474.573 324.053 477.119 321.703 477.119 318.813V58.2375C477.119 55.3489 474.573 52.9978 471.443 52.9978L270.621 52.9988Z" fill="#D6D6D6"/>
<path d="M278.095 285.102H255.227V368.846H278.095V285.102Z" fill="#D6D6D6"/>
<path d="M273.752 368.85H278.095V357.445H269.198L273.752 368.85Z" fill="#D6D6D6"/>
<path d="M177.886 285.102H155.018V368.846H177.886V285.102Z" fill="#D6D6D6"/>
<path d="M278.097 285.102H174.096V361.849H278.097V285.102Z" fill="#D6D6D6"/>
<path d="M274.324 288.871V309.176H177.866V288.871H274.324ZM274.726 288.5H177.464V309.547H274.726V288.5Z" fill="#D6D6D6"/>
<path d="M178.439 368.85H174.096V357.445H182.993L178.439 368.85Z" fill="#D6D6D6"/>
<path d="M223.795 299.03C223.795 300.202 224.825 301.153 226.095 301.153C227.365 301.153 228.396 300.203 228.396 299.03C228.396 297.858 227.366 296.906 226.095 296.906C224.826 296.907 223.795 297.858 223.795 299.03Z" fill="#D6D6D6"/>
<path d="M274.324 313.324V333.629H177.866V313.324H274.324ZM274.726 312.953H177.464V334H274.726V312.953Z" fill="#D6D6D6"/>
<path d="M223.795 323.475C223.795 324.647 224.825 325.599 226.095 325.599C227.365 325.599 228.396 324.648 228.396 323.475C228.396 322.302 227.366 321.352 226.095 321.352C224.826 321.353 223.795 322.303 223.795 323.475Z" fill="#D6D6D6"/>
<path d="M274.324 337.769V358.074H177.866V337.769H274.324ZM274.726 337.398H177.464V358.445H274.726V337.398Z" fill="#D6D6D6"/>
<path d="M223.795 347.92C223.795 349.093 224.825 350.044 226.095 350.044C227.365 350.044 228.396 349.094 228.396 347.92C228.396 346.747 227.366 345.797 226.095 345.797C224.826 345.797 223.795 346.747 223.795 347.92Z" fill="#D6D6D6"/>
<path d="M163.914 236.469H141.046V368.849H163.914V236.469Z" fill="#D6D6D6"/>
<path d="M159.571 368.85H163.914V357.445H155.017L159.571 368.85Z" fill="#D6D6D6"/>
<path d="M78.4438 236.469H55.5752V368.849H78.4438V236.469Z" fill="#D6D6D6"/>
<path d="M163.914 236.469H74.6543V361.851H163.914V236.469Z" fill="#D6D6D6"/>
<path d="M160.071 240.023V268.41H78.4966V240.023H160.071ZM160.544 239.586H78.0234V268.848H160.544V239.586Z" fill="#D6D6D6"/>
<path d="M160.071 271.859V347.157H121.215V271.859H160.071ZM160.544 271.422H120.741V347.596H160.544V271.422Z" fill="#D6D6D6"/>
<path d="M117.352 271.859V347.157H78.4966V271.859H117.352ZM117.826 271.422H78.0234V347.596H117.826V271.422Z" fill="#D6D6D6"/>
<path d="M78.9973 368.85H74.6543V357.445H83.5515L78.9973 368.85Z" fill="#D6D6D6"/>
<path d="M116.984 254.209C116.984 255.383 118.014 256.333 119.285 256.333C120.555 256.333 121.585 255.383 121.585 254.209C121.585 253.037 120.556 252.086 119.285 252.086C118.014 252.087 116.984 253.037 116.984 254.209Z" fill="#D6D6D6"/>
<path d="M125.219 307.709C125.219 308.882 126.248 309.833 127.519 309.833C128.79 309.833 129.82 308.883 129.82 307.709C129.82 306.537 128.79 305.586 127.519 305.586C126.248 305.586 125.219 306.536 125.219 307.709Z" fill="#D6D6D6"/>
<path d="M108.748 307.709C108.748 308.882 109.778 309.833 111.049 309.833C112.318 309.833 113.349 308.883 113.349 307.709C113.349 306.537 112.319 305.586 111.049 305.586C109.779 305.586 108.748 306.536 108.748 307.709Z" fill="#D6D6D6"/>
<path d="M106.158 199.555H96.5113C96.5113 199.555 98.1857 207.787 98.1857 212.631C98.1857 217.475 90.8474 236.464 101.335 236.464C111.821 236.464 104.484 217.474 104.484 212.631C104.483 207.786 106.158 199.555 106.158 199.555Z" fill="#86B1F2"/>
<path d="M69.4756 219.023V224.809C69.4756 231.219 75.1571 236.464 82.1022 236.464H88.3703C95.3144 236.464 100.996 231.219 100.996 224.809V219.023H69.4756Z" fill="#3F7FDD"/>
<path d="M203.494 272.898C203.494 279.611 211.638 285.103 221.592 285.103H230.577C240.532 285.103 248.676 279.611 248.676 272.898H203.494Z" fill="#D6D6D6"/>
<path d="M441.591 263.076C436.141 267.182 428.62 274.7 421.728 285.279C417.137 292.323 414.371 299.705 413.156 309.456C413.182 298.417 413.219 286.556 413.261 275.363C414.645 272.482 417.807 265.843 420.075 260.598C427.643 243.096 430.462 238.793 437.268 223.697C446.346 203.562 455.649 179.67 452.986 181.579C447.558 185.469 426.757 221.423 424.509 226.57C416.775 244.272 414.621 257.176 413.283 269.628C413.324 259.114 413.369 249.46 413.413 242.011C413.552 217.716 414 209.875 414.219 207.456C415.06 206.227 416.054 204.795 416.633 204.023C421.519 197.502 423.403 191.947 428.007 182.22C434.531 168.437 440.149 143.967 438.507 145.201C431.668 150.34 426.273 161.389 419.185 175.467C412.097 189.546 414.123 197.641 412.717 209.665C412.422 212.025 412.196 220.929 412.033 233.27C410.194 220.123 406.745 211.459 400.453 203.586C392.714 193.902 385.227 187.361 379.733 183.944C374.24 180.528 389.219 204.315 396.383 214.698C402.762 223.943 408.638 232.102 411.952 240.138C411.776 256.863 411.695 278.042 411.695 297.757C410.051 288.785 407.368 279.124 403.789 271.643C399.487 262.654 392.87 248.868 387.602 244.192C386.336 243.068 393.11 269.881 397.456 277.011C401.803 284.141 404.994 290.86 407.73 294.902C408.369 295.844 410.486 299.481 411.696 301.572C411.707 325.639 411.84 346.876 412.067 354.105H413.193C413.116 352.24 413.104 339.997 413.128 323.793C415.84 314.995 422.044 304.955 427.163 295.795C432.751 285.796 447.041 258.969 441.591 263.076Z" fill="#96D9C9"/>
<path d="M428.938 368.854H396.341L393.881 339.359H431.399L428.938 368.854Z" fill="#86B1F2"/>
<path d="M433.828 342.795H391.451L390.237 332.844H435.042L433.828 342.795Z" fill="#3F7FDD"/>
<path d="M129.231 72.4844H70.9365V131.571H129.231V72.4844Z" fill="#D6D6D6"/>
<path d="M135.544 72.4844H75.3301V131.571H135.544V72.4844Z" fill="#D6D6D6"/>
<path d="M130.499 126.915V77.1406L80.3741 77.1406V126.915H130.499Z" fill="white"/>
<path d="M118.35 114.849V89.2031H92.5243V114.849H118.35Z" fill="#D6D6D6"/>
<path d="M426.453 79.3672H372.3V134.257H426.453V79.3672Z" fill="#D6D6D6"/>
<path d="M432.318 79.3672H376.382V134.257H432.318V79.3672Z" fill="#D6D6D6"/>
<path d="M427.632 129.934V83.6953L381.068 83.6953V129.934H427.632Z" fill="white"/>
<path d="M404.35 120.225C412.373 120.225 418.877 114.221 418.877 106.816C418.877 99.4098 412.373 93.4062 404.35 93.4062C396.327 93.4062 389.823 99.4098 389.823 106.816C389.823 114.221 396.327 120.225 404.35 120.225Z" fill="#D6D6D6"/>
<path d="M189.788 107.711H146.545V151.543H189.788V107.711Z" fill="#D6D6D6"/>
<path d="M194.474 107.711H149.806V151.543H194.474V107.711Z" fill="#D6D6D6"/>
<path d="M190.731 148.088V111.164H153.548V148.088H190.731Z" fill="white"/>
<path d="M172.139 120.289L161.97 136.549H182.308L172.139 120.289Z" fill="#D6D6D6"/>
<path d="M260 410.459C371.365 410.459 461.645 405.592 461.645 399.589C461.645 393.585 371.365 388.719 260 388.719C148.635 388.719 58.3555 393.585 58.3555 399.589C58.3555 405.592 148.635 410.459 260 410.459Z" fill="#D6D6D6"/>
<path d="M363.216 156.9L352.901 153.039C352.901 153.039 339.287 175.957 335.388 177.114C330.082 178.688 319.109 183.065 312.588 183.885C311.709 184.833 310.26 187.825 310.398 188.915C319.146 191.608 338.366 188.032 342.48 185.212C351.859 178.781 363.216 156.9 363.216 156.9Z" fill="#FFA89B"/>
<path d="M366.393 151.698C368.311 158.263 357.892 171.451 357.892 171.451L344.203 164.363C344.203 164.363 346.755 158.942 349.879 153.421C354.924 144.505 364.201 144.205 366.393 151.698Z" fill="#FF725E"/>
<path opacity="0.2" d="M366.393 151.698C368.311 158.263 357.892 171.451 357.892 171.451L344.203 164.363C344.203 164.363 346.755 158.942 349.879 153.421C354.924 144.505 364.201 144.205 366.393 151.698Z" fill="black"/>
<path opacity="0.2" d="M349.661 167.184L355.037 169.966L355.977 154.734C352.857 156.954 350.644 163.633 349.661 167.184Z" fill="black"/>
<path d="M357.409 146.755C357.409 146.755 346.781 168.582 352.977 209.229C365.597 209.229 388.718 209.229 394.858 209.229C395.524 203.294 393.323 174.345 401.3 146.383C401.3 146.383 394.205 145.053 387.384 144.749C382.047 144.511 374.31 144.353 369.58 144.75C363.344 145.272 357.409 146.755 357.409 146.755Z" fill="#FF725E"/>
<path opacity="0.2" d="M357.409 146.755C357.409 146.755 346.781 168.582 352.977 209.229C365.597 209.229 388.718 209.229 394.858 209.229C395.524 203.294 393.323 174.345 401.3 146.383C401.3 146.383 394.205 145.053 387.384 144.749C382.047 144.511 374.31 144.353 369.58 144.75C363.344 145.272 357.409 146.755 357.409 146.755Z" fill="black"/>
<path d="M347.696 400.46C347.631 401.491 363.51 402.326 383.163 402.326C402.815 402.326 418.8 401.491 418.866 400.46C418.931 399.429 403.053 398.594 383.4 398.594C363.747 398.593 347.762 399.429 347.696 400.46Z" fill="#D6D6D6"/>
<path d="M376.627 374.553L369.174 377.203L375.565 392.515L383.017 389.864L376.627 374.553Z" fill="#FFA89B"/>
<path d="M408.773 393.082H400.943L398.07 376.344H405.9L408.773 393.082Z" fill="#FFA89B"/>
<path d="M400.439 392.242H409.237C409.557 392.242 409.821 392.448 409.872 392.736L411.011 399.16C411.13 399.826 410.522 400.457 409.783 400.445C406.715 400.396 405.233 400.23 401.365 400.23C398.985 400.23 394.067 400.459 390.78 400.459C387.565 400.459 387.254 397.459 388.618 397.187C394.728 395.969 397.107 394.289 399.14 392.687C399.506 392.398 399.971 392.242 400.439 392.242Z" fill="#434343"/>
<path d="M374.371 389.71L382.713 387.471C383.025 387.388 383.347 387.511 383.485 387.77L386.576 393.526C386.896 394.122 386.518 394.871 385.794 395.053C382.773 395.815 380.741 396.291 376.959 397.305C374.345 398.006 371.687 399.149 369.105 399.909C367.317 400.435 363.119 400.456 360.944 400.456C357.729 400.456 357.013 397.327 358.391 397.184C361.878 396.823 362.346 396.991 364.271 396.1C367.453 394.626 369.915 393.406 372.67 390.742C373.151 390.279 373.713 389.887 374.371 389.71Z" fill="#434343"/>
<path d="M313.907 183.815L305.291 180.469L301.743 189.28C301.743 189.28 306.715 190.112 312.394 189.28L313.907 183.815Z" fill="#FFA89B"/>
<path d="M298.887 180.25L298.659 186.113L301.743 189.277L305.29 180.466L298.887 180.25Z" fill="#FFA89B"/>
<path d="M376.655 374.539L369.201 377.195L372.501 385.086L379.955 382.43L376.655 374.539Z" fill="#FFA89B"/>
<path d="M405.904 376.344H398.07L399.555 384.971H407.389L405.904 376.344Z" fill="#FFA89B"/>
<path opacity="0.2" d="M351.648 198.231C351.798 199.968 351.98 201.743 352.204 203.568L383.347 194.235C388.21 192.893 392.441 190.072 395.327 186.216C395.445 183.65 395.605 180.958 395.84 178.146C395.947 176.775 396.075 175.373 396.215 173.953C396.364 172.474 396.535 170.964 396.727 169.445L351.648 198.231Z" fill="black"/>
<path d="M361.817 166.745L360.756 166.629C361.374 161.838 365.248 158.052 369.34 158.142L369.309 159.129C365.776 159.034 362.372 162.449 361.817 166.745Z" fill="white"/>
<path d="M367.357 175.605C367.299 175.605 367.241 175.604 367.182 175.604L367.213 174.617C370.789 174.738 374.15 171.296 374.705 167L375.766 167.117C375.156 171.839 371.405 175.605 367.357 175.605Z" fill="white"/>
<path d="M386.795 126.242C385.336 131.53 383.601 141.218 387.384 144.746C387.384 144.746 384.741 150.11 374.097 150.11C364.37 150.11 369.58 144.746 369.58 144.746C376.057 143.338 376.171 138.963 375.319 134.854L386.795 126.242Z" fill="#FFA89B"/>
<path d="M382.116 129.758L375.324 134.853C375.529 135.825 375.675 136.811 375.688 137.769C377.674 139.594 381.659 134.971 382.068 132.612C382.27 131.437 382.289 130.306 382.116 129.758Z" fill="#FFA89B"/>
<path d="M363.651 126.176C364.647 127.822 366.403 128.846 368.063 129.187C370.56 129.701 371.815 127.58 371.127 125.446C370.507 123.525 368.461 120.944 365.952 121.386C363.48 121.823 362.512 124.295 363.651 126.176Z" fill="#FFA89B"/>
<path d="M367.771 109.249C363.882 110.894 362.511 125.157 367.401 127.266C372.291 129.374 375.139 106.134 367.771 109.249Z" fill="#434343"/>
<path d="M387.981 118.281C387.051 125.441 386.898 129.654 382.747 133.329C376.503 138.857 367.137 135.579 365.74 128.431C364.483 121.998 366.216 111.37 373.99 108.521C381.649 105.714 388.912 111.122 387.981 118.281Z" fill="#FFA89B"/>
<path d="M375.206 112.962C380.959 111.603 385.194 110.678 383.683 115.111C381.669 121.017 379.254 126.739 382.494 127.006C384.464 127.168 393.201 123.745 392.091 120.286C391.125 117.271 395.186 116.458 395.935 114.921C398.632 109.386 390.926 110.105 392.297 106.755C393.632 103.494 386.089 97.9829 381.909 100.676C375.144 105.035 363.517 104.973 369.63 97.8226C374.008 92.7019 366.197 93.7531 366.197 93.7531C366.197 93.7531 370.915 96.3365 362.974 100.33C354.556 104.562 362.262 116.018 375.206 112.962Z" fill="#434343"/>
<path d="M390.984 126.176C389.778 127.822 387.893 128.846 386.189 129.187C383.627 129.701 382.642 127.58 383.601 125.446C384.465 123.525 386.838 120.944 389.292 121.386C391.708 121.823 392.361 124.295 390.984 126.176Z" fill="#FFA89B"/>
<path d="M352.977 209.228C352.977 209.228 345.948 267.305 345.399 289.346C344.829 312.273 369.223 383.804 369.223 383.804L381.714 378.962C381.714 378.962 367.17 313.612 369.191 291.095C371.393 266.549 380.507 209.227 380.507 209.227H352.977V209.228Z" fill="#FF725E"/>
<path opacity="0.2" d="M370.448 225.17C364.847 235.903 368.62 257.123 371.655 269.702C372.809 260.823 374.177 251.185 375.481 242.267C375.353 228.554 374.199 217.969 370.448 225.17Z" fill="black"/>
<path d="M381.15 375.195C381.208 375.173 382.631 378.87 382.631 378.87L368.233 384.451L365.965 380.558L381.15 375.195Z" fill="#FF725E"/>
<path d="M367.834 209.227C367.834 209.227 373.212 264.463 376.776 285.157C380.679 307.818 396.011 383.303 396.011 383.303H410.352C410.352 383.303 401.759 309.647 400.135 287.211C398.374 262.86 394.857 209.227 394.857 209.227H367.834Z" fill="#FF725E"/>
<path d="M410.571 379.852C410.633 379.852 411.051 383.552 411.051 383.552H395.287L394.162 379.305L410.571 379.852Z" fill="#FF725E"/>
<path opacity="0.2" d="M405.077 375.48C405.01 375.48 404.952 375.433 404.945 375.371C404.867 374.701 397.118 308.203 395.66 288.045C394.078 266.169 390.897 217.665 390.864 217.177C390.86 217.109 390.916 217.051 390.989 217.047C390.992 217.047 390.996 217.047 390.998 217.047C391.067 217.047 391.128 217.098 391.132 217.163C391.163 217.65 394.344 266.154 395.927 288.027C397.384 308.182 405.132 374.675 405.21 375.344C405.219 375.412 405.166 375.473 405.093 375.48C405.086 375.48 405.081 375.48 405.077 375.48Z" fill="black"/>
<path d="M376.089 120.283C376.052 120.865 375.688 121.339 375.275 121.339C374.862 121.339 374.557 120.866 374.595 120.283C374.631 119.7 374.996 119.227 375.409 119.227C375.822 119.227 376.127 119.7 376.089 120.283Z" fill="#434343"/>
<path d="M368.951 120.283C368.913 120.865 368.549 121.339 368.136 121.339C367.724 121.339 367.419 120.866 367.456 120.283C367.494 119.7 367.858 119.227 368.271 119.227C368.683 119.227 368.988 119.7 368.951 120.283Z" fill="#434343"/>
<path d="M371.201 120.578C371.201 120.578 369.552 123.942 367.867 125.564C368.924 126.527 370.851 126.087 370.851 126.087L371.201 120.578Z" fill="#FF725E"/>
<path d="M371.383 128.53C371.281 128.53 371.202 128.453 371.208 128.359C371.215 128.265 371.303 128.188 371.405 128.188C374.178 128.188 375.585 126.401 375.599 126.382C375.662 126.304 375.778 126.281 375.859 126.332C375.941 126.384 375.959 126.49 375.898 126.57C375.835 126.648 374.354 128.53 371.383 128.53Z" fill="#434343"/>
<path d="M377.359 118.513C377.252 118.552 377.131 118.546 377.031 118.487C375.667 117.694 374.395 118.226 374.383 118.233C374.208 118.316 373.976 118.244 373.898 118.073C373.82 117.902 373.912 117.697 374.101 117.616C374.168 117.586 375.761 116.919 377.454 117.903C377.623 118.002 377.665 118.212 377.548 118.373C377.501 118.438 377.433 118.486 377.359 118.513Z" fill="#434343"/>
<path d="M366.19 116.593C366.139 116.579 366.089 116.555 366.049 116.519C365.903 116.394 365.903 116.178 366.049 116.036C367.5 114.62 369.183 114.836 369.254 114.845C369.452 114.865 369.584 115.047 369.541 115.234C369.498 115.42 369.303 115.549 369.103 115.522C369.047 115.514 367.733 115.36 366.574 116.49C366.471 116.592 366.32 116.627 366.19 116.593Z" fill="#434343"/>
<path d="M405.32 155.83L394.501 153.172C394.501 153.172 383.893 177.276 380.145 178.849C375.046 180.991 362.136 188.398 356.649 191.97C356.344 193.165 356.583 196.348 357.274 197.215C366.604 195.65 384.553 189.28 388.296 186.042C396.83 178.661 405.32 155.83 405.32 155.83Z" fill="#FFA89B"/>
<path d="M397.77 393.502C397.174 393.502 396.623 393.408 396.286 393.134C396.019 392.916 395.909 392.611 395.96 392.229C395.998 391.944 396.169 391.808 396.309 391.745C397.192 391.336 399.635 392.767 399.91 392.932C399.971 392.969 400 393.037 399.984 393.105C399.968 393.173 399.909 393.227 399.835 393.243C399.283 393.364 398.494 393.502 397.77 393.502ZM396.702 392.006C396.605 392.006 396.523 392.02 396.459 392.049C396.408 392.073 396.346 392.118 396.33 392.25C396.293 392.523 396.362 392.726 396.542 392.872C396.948 393.205 397.968 393.249 399.313 393.002C398.458 392.529 397.302 392.006 396.702 392.006Z" fill="#FF725E"/>
<path d="M399.792 393.249C399.762 393.249 399.731 393.243 399.704 393.229C398.919 392.822 397.454 391.239 397.671 390.433C397.71 390.287 397.843 390.034 398.29 389.984C398.582 389.951 398.841 390.026 399.066 390.203C399.932 390.89 399.986 392.976 399.988 393.064C399.99 393.126 399.954 393.187 399.895 393.221C399.862 393.24 399.827 393.249 399.792 393.249ZM398.398 390.319C398.371 390.319 398.343 390.322 398.314 390.325C398.072 390.352 398.043 390.455 398.032 390.498C397.903 390.974 398.826 392.171 399.595 392.736C399.542 392.126 399.369 390.91 398.815 390.47C398.687 390.368 398.551 390.319 398.398 390.319Z" fill="#FF725E"/>
<path d="M370.154 392.309C369.389 392.48 368.658 392.531 368.193 392.297C367.896 392.149 367.726 391.902 367.686 391.565C367.662 391.363 367.736 391.187 367.897 391.056C368.735 390.368 372.128 391.108 372.513 391.194C372.588 391.212 372.641 391.271 372.644 391.344C372.647 391.417 372.601 391.485 372.527 391.517C371.898 391.78 371.004 392.119 370.154 392.309ZM368.463 391.168C368.32 391.2 368.208 391.245 368.134 391.306C368.069 391.359 368.045 391.421 368.055 391.509C368.082 391.738 368.19 391.897 368.384 391.995C368.936 392.272 370.218 392.052 371.869 391.415C370.709 391.19 369.193 391.004 368.463 391.168Z" fill="#FF725E"/>
<path d="M372.493 391.529C372.467 391.535 372.441 391.535 372.415 391.532C371.407 391.359 369.254 390.255 369.235 389.428C369.229 389.235 369.328 388.97 369.821 388.813C370.179 388.689 370.547 388.714 370.892 388.871C372.023 389.385 372.614 391.228 372.638 391.306C372.656 391.364 372.64 391.427 372.594 391.474C372.566 391.502 372.53 391.52 372.493 391.529ZM370.033 389.104C369.998 389.112 369.962 389.123 369.924 389.134C369.602 389.238 369.605 389.36 369.605 389.4C369.617 389.896 371.112 390.808 372.167 391.115C371.957 390.585 371.452 389.516 370.711 389.179C370.489 389.077 370.265 389.052 370.033 389.104Z" fill="#FF725E"/>
<path d="M357.529 191.398L346.684 196.006L345.426 198.831L349.434 201.32C349.434 201.32 356.914 200.568 359.045 196.132L357.529 191.398Z" fill="#FFA89B"/>
<path d="M357.991 197.373C357.313 193.654 355.988 191.958 355.976 191.941L357.685 190.758C357.752 190.839 359.323 192.798 360.099 197.046L357.991 197.373Z" fill="#434343"/>
<path d="M359.838 192.761C360.19 193.565 359.625 194.532 358.575 194.924C357.526 195.316 356.391 194.982 356.04 194.178C355.688 193.374 356.253 192.407 357.303 192.015C358.351 191.624 359.487 191.958 359.838 192.761Z" fill="#434343"/>
<path d="M339.356 199.728L340.797 201.075L350.528 197.233L346.684 196.008L339.356 199.728Z" fill="#FFA89B"/>
<path opacity="0.2" d="M381.15 375.195C381.208 375.173 382.631 378.87 382.631 378.87L368.233 384.451L365.965 380.558L381.15 375.195Z" fill="black"/>
<path opacity="0.2" d="M410.571 379.852C410.633 379.852 411.051 383.552 411.051 383.552H395.287L394.162 379.305L410.571 379.852Z" fill="black"/>
<path d="M408.139 153.067C411 161.58 399.861 173.208 399.861 173.208L384.419 167.39C384.419 167.39 386.595 161.206 390.735 152.92C395.442 143.504 405.251 144.476 408.139 153.067Z" fill="#FF725E"/>
<path opacity="0.2" d="M408.139 153.067C411 161.58 399.861 173.208 399.861 173.208L384.419 167.39C384.419 167.39 386.595 161.206 390.735 152.92C395.442 143.504 405.251 144.476 408.139 153.067Z" fill="black"/>
<path d="M338.638 72.1875H215.919L204.494 308.078H327.213L338.638 72.1875Z" fill="#B95962"/>
<path opacity="0.56" d="M334.973 75.4219H212.254L200.831 311.312H323.55L334.973 75.4219Z" fill="#D6D6D6"/>
<path opacity="0.07" d="M331.309 78.6641H208.591L197.167 314.554H319.886L331.309 78.6641Z" fill="#B95962"/>
<path d="M317.341 181.547H212.595L211.721 199.601H316.467L317.341 181.547Z" fill="white"/>
<path d="M270.207 168.375H213.233L212.842 176.452H269.815L270.207 168.375Z" fill="#A72F3B"/>
<path d="M314.983 230.258H210.236L209.361 248.312H314.108L314.983 230.258Z" fill="white"/>
<path opacity="0.47" d="M295.774 272.68H225.335L224.288 294.317H294.725L295.774 272.68Z" fill="#A72F3B"/>
<path d="M291.062 297.663H220.625C220.592 297.663 220.559 297.649 220.535 297.627C220.513 297.605 220.5 297.574 220.502 297.544L221.55 275.906C221.553 275.845 221.608 275.797 221.673 275.797H292.11C292.144 275.797 292.176 275.81 292.2 275.832C292.223 275.854 292.235 275.885 292.233 275.916L291.185 297.553C291.183 297.615 291.128 297.663 291.062 297.663ZM220.754 297.434H290.943L291.979 276.025H221.79L220.754 297.434Z" fill="white"/>
<path d="M257.897 217.094H210.873L210.482 225.171H257.505L257.897 217.094Z" fill="#A72F3B"/>
<path d="M294.43 123.242C294.168 128.647 292.046 133.639 288.643 137.695C283.504 143.84 275.455 147.836 266.596 147.836C257.736 147.836 250.085 143.84 245.542 137.695C242.532 133.639 240.893 128.648 241.155 123.242C241.814 109.658 254.273 98.6484 268.978 98.6484C283.694 98.6475 295.088 109.658 294.43 123.242Z" fill="white"/>
<path d="M296.935 103.8C296.866 105.237 296.302 106.563 295.397 107.64C294.032 109.273 291.893 110.335 289.539 110.335C287.184 110.335 285.152 109.273 283.945 107.64C283.145 106.563 282.709 105.237 282.779 103.8C282.953 100.191 286.265 97.2656 290.172 97.2656C294.082 97.2656 297.11 100.191 296.935 103.8Z" fill="#A72F3B"/>
<path d="M223.875 190.572C223.798 192.17 222.331 193.465 220.601 193.465C218.87 193.465 217.53 192.17 217.607 190.572C217.684 188.975 219.15 187.68 220.881 187.68C222.612 187.679 223.953 188.975 223.875 190.572Z" fill="#434343"/>
<path d="M237.902 190.572C237.825 192.17 236.359 193.465 234.628 193.465C232.898 193.465 231.557 192.17 231.634 190.572C231.711 188.975 233.177 187.68 234.908 187.68C236.638 187.68 237.98 188.975 237.902 190.572Z" fill="#434343"/>
<path d="M251.929 190.572C251.852 192.17 250.386 193.465 248.656 193.465C246.925 193.465 245.584 192.17 245.661 190.572C245.738 188.975 247.205 187.68 248.935 187.68C250.666 187.679 252.006 188.975 251.929 190.572Z" fill="#434343"/>
<path d="M221.516 239.284C221.439 240.881 219.973 242.177 218.242 242.177C216.512 242.177 215.171 240.881 215.248 239.284C215.325 237.687 216.792 236.391 218.522 236.391C220.253 236.392 221.593 237.687 221.516 239.284Z" fill="#434343"/>
<path d="M235.543 239.284C235.466 240.881 233.999 242.177 232.269 242.177C230.538 242.177 229.198 240.881 229.275 239.284C229.352 237.687 230.818 236.391 232.549 236.391C234.28 236.392 235.62 237.687 235.543 239.284Z" fill="#434343"/>
<path d="M249.569 239.284C249.492 240.881 248.026 242.177 246.295 242.177C244.565 242.177 243.224 240.881 243.301 239.284C243.378 237.687 244.844 236.391 246.575 236.391C248.305 236.391 249.647 237.687 249.569 239.284Z" fill="#434343"/>
<path d="M263.597 239.284C263.52 240.881 262.054 242.177 260.323 242.177C258.593 242.177 257.252 240.881 257.329 239.284C257.406 237.687 258.873 236.391 260.603 236.391C262.334 236.392 263.674 237.687 263.597 239.284Z" fill="#434343"/>
<path d="M277.624 239.284C277.547 240.881 276.08 242.177 274.35 242.177C272.619 242.177 271.279 240.881 271.356 239.284C271.433 237.687 272.899 236.391 274.63 236.391C276.36 236.392 277.701 237.687 277.624 239.284Z" fill="#434343"/>
<path d="M278.965 115.025C278.699 120.518 273.659 124.971 267.707 124.971C261.756 124.971 257.147 120.518 257.413 115.025C257.68 109.531 262.719 105.078 268.671 105.078C274.622 105.078 279.231 109.532 278.965 115.025Z" fill="#A72F3B"/>
<path d="M288.643 137.696C283.504 143.842 275.456 147.837 266.596 147.837C257.736 147.837 250.085 143.842 245.542 137.696C250.597 133.049 258.599 130.031 267.459 130.031C276.328 130.031 284.038 133.049 288.643 137.696Z" fill="#A72F3B"/>
<path opacity="0.1" d="M278.965 115.025C278.699 120.518 273.659 124.971 267.707 124.971C261.756 124.971 257.147 120.518 257.413 115.025C257.68 109.531 262.719 105.078 268.671 105.078C274.622 105.078 279.231 109.532 278.965 115.025Z" fill="white"/>
<path opacity="0.1" d="M288.643 137.696C283.504 143.842 275.456 147.837 266.596 147.837C257.736 147.837 250.085 143.842 245.542 137.696C250.597 133.049 258.599 130.031 267.459 130.031C276.328 130.031 284.038 133.049 288.643 137.696Z" fill="white"/>
<path d="M135.623 203.943C134.638 205.937 133.602 208.131 132.692 210.271C131.774 212.431 130.859 214.593 130.061 216.785C128.512 221.17 127.059 225.596 126.343 230.034L126.106 231.447C126.088 231.617 126.101 231.859 126.182 232.162C126.334 232.772 126.746 233.588 127.325 234.389C128.496 236.008 130.156 237.648 131.946 239.17C133.732 240.717 135.671 242.196 137.687 243.601C139.682 245.018 141.787 246.405 143.847 247.705L141.908 251.073C136.96 249.077 132.351 246.689 127.888 243.693C125.693 242.149 123.526 240.488 121.606 238.241C120.66 237.108 119.729 235.829 119.12 234.139C118.824 233.296 118.618 232.343 118.617 231.312C118.624 231.075 118.638 230.742 118.656 230.582L118.707 230.105L118.811 229.151C119.376 224.062 120.597 219.171 122.206 214.426C123.017 212.057 123.883 209.712 124.871 207.411C125.88 205.094 126.875 202.871 128.136 200.539L135.623 203.943Z" fill="#FFA89B"/>
<path d="M142.391 247.129L149.74 243.688L147.842 251.143C147.842 251.143 142.796 252.444 140.448 250.184L142.391 247.129Z" fill="#FFA89B"/>
<path d="M156.469 244.911L154.514 251.075L147.84 251.144L149.739 243.688L156.469 244.911Z" fill="#FFA89B"/>
<path d="M166.85 168C166.85 168 167.487 170.164 168.498 171.795C167.63 172.544 166.85 172.284 166.85 172.284V168Z" fill="#FF725E"/>
<path d="M166.632 168.052C167.062 168.052 167.41 167.559 167.41 166.952C167.41 166.344 167.062 165.852 166.632 165.852C166.201 165.852 165.853 166.344 165.853 166.952C165.853 167.559 166.201 168.052 166.632 168.052Z" fill="#434343"/>
<path d="M166.441 165.889L168.022 165.469C168.022 165.469 167.211 166.609 166.441 165.889Z" fill="#434343"/>
<path d="M146.533 175.039C147.483 179.508 148.43 187.697 145.042 190.678C145.042 190.678 146.366 195.212 155.362 195.212C165.254 195.212 160.09 190.678 160.09 190.678C154.691 189.488 154.83 185.791 155.771 182.319L146.533 175.039Z" fill="#FFA89B"/>
<path d="M143.908 164.872C144.404 172.334 144.441 175.501 148.525 179.33C154.665 185.09 164.483 182.895 166.413 175.449C168.148 168.745 167.045 157.671 159.134 154.701C151.338 151.776 143.411 157.411 143.908 164.872Z" fill="#FFA89B"/>
<path d="M144.704 156.426C140.651 157.79 135.244 156.776 137.366 168.324C139.612 180.551 136.154 184.573 136.154 184.573C136.154 184.573 151.538 187.598 167.242 184.393C167.242 184.393 162.448 176.653 163.793 171.006C165.509 163.803 164.149 161.141 164.149 161.141C164.149 161.141 150.403 154.508 144.704 156.426Z" fill="#434343"/>
<path d="M161.866 168.759C161.849 170.237 162.411 171.726 163.139 172.76C164.234 174.316 165.534 173.683 165.859 172.067C166.152 170.613 165.935 168.052 164.532 167.059C163.151 166.081 161.885 167.069 161.866 168.759Z" fill="#FFA89B"/>
<path d="M141.184 157.734C140.014 154.715 145.572 150.071 157.322 152.003C169.072 153.934 169.588 162.954 169.588 162.954L167.21 160.35L167.317 163.093L155.242 165.234L141.184 157.734Z" fill="#434343"/>
<path d="M142.18 191.188C142.018 190.266 142.69 189.397 143.688 189.245C147.347 188.687 155.663 187.559 159.849 188.093C162.959 188.491 163.781 190.167 163.912 191.538C164.01 192.554 163.099 193.412 161.994 193.366L143.91 192.611C143.042 192.575 142.319 191.981 142.18 191.188Z" fill="#FF725E"/>
<path opacity="0.6" d="M142.18 191.188C142.018 190.266 142.69 189.397 143.688 189.245C147.347 188.687 155.663 187.559 159.849 188.093C162.959 188.491 163.781 190.167 163.912 191.538C164.01 192.554 163.099 193.412 161.994 193.366L143.91 192.611C143.042 192.575 142.319 191.981 142.18 191.188Z" fill="black"/>
<path d="M152.631 358.908L159.334 363.203L170.557 349.162L163.855 344.867L152.631 358.908Z" fill="#FFA89B"/>
<path d="M136.983 358.623L144.074 362.35L154.007 347.5L146.917 343.773L136.983 358.623Z" fill="#FFA89B"/>
<path d="M170.551 349.164L164.767 356.403L158.062 352.106L163.846 344.867L170.551 349.164Z" fill="#FFA89B"/>
<path d="M146.913 343.773L154.006 347.502L148.882 355.155L141.789 351.427L146.913 343.773Z" fill="#FFA89B"/>
<path d="M158.286 238.062C158.286 238.062 184.473 268.528 179.56 297.661C175.591 321.193 152.61 353.056 152.61 353.056L141.805 348.099C141.805 348.099 153.545 326.923 161.255 304.475C164.488 295.062 163.11 284.691 157.066 276.542C143.801 258.657 122.548 269.299 136.844 238.063L158.286 238.062Z" fill="#FF725E"/>
<path opacity="0.6" d="M158.286 238.062C158.286 238.062 184.473 268.528 179.56 297.661C175.591 321.193 152.61 353.056 152.61 353.056L141.805 348.099C141.805 348.099 153.545 326.923 161.255 304.475C164.488 295.062 163.11 284.691 157.066 276.542C143.801 258.657 122.548 269.299 136.844 238.063L158.286 238.062Z" fill="black"/>
<path opacity="0.4" d="M171.13 257.641L167.326 254.148C167.326 254.425 174.701 296.44 176.774 308.248C178.024 304.628 178.986 301.057 179.563 297.663C181.967 283.399 176.912 268.809 171.13 257.641Z" fill="black"/>
<path d="M169.981 238.063C169.981 238.063 201.513 276.348 202.4 299.307C203.144 318.543 168.054 355.702 168.054 355.702L157.867 349.618C157.867 349.618 178.386 323.202 183.551 301.608C181.582 280.233 139.308 238.062 139.308 238.062H169.981V238.063Z" fill="#FF725E"/>
<path opacity="0.6" d="M169.981 238.063C169.981 238.063 201.513 276.348 202.4 299.307C203.144 318.543 168.054 355.702 168.054 355.702L157.867 349.618C157.867 349.618 178.386 323.202 183.551 301.608C181.582 280.233 139.308 238.062 139.308 238.062H169.981V238.063Z" fill="black"/>
<path d="M130.97 192.389C127.593 193.125 124.366 204.44 124.366 204.44L137.536 212.555C137.536 212.555 141.925 203.612 140.393 199.694C138.796 195.614 135.234 191.461 130.97 192.389Z" fill="#FF725E"/>
<path opacity="0.2" d="M133.547 199.672L132.627 209.53L137.53 212.559C137.53 212.559 139.827 207.873 140.511 203.789L133.547 199.672Z" fill="black"/>
<path d="M173.881 192.611C173.881 192.611 177.768 193.874 169.982 238.068C156.832 238.068 143.243 238.068 136.845 238.068C137.401 225.618 137.417 217.941 130.971 192.393C130.971 192.393 137.914 190.999 145.042 190.681C150.618 190.433 155.187 190.268 160.09 190.682C166.552 191.226 173.881 192.611 173.881 192.611Z" fill="#FF725E"/>
<path d="M177.247 199.624C177.997 201.539 178.792 203.611 179.619 205.6C180.412 207.619 181.236 209.634 182.086 211.641L184.636 217.67L185.281 219.178L185.604 219.931L185.766 220.307C185.794 220.375 185.789 220.369 185.779 220.362C185.734 220.344 185.696 220.154 185.051 219.763C184.735 219.582 184.204 219.407 183.693 219.397C183.178 219.38 182.77 219.496 182.536 219.59C182.067 219.797 182.06 219.886 182.07 219.872C182.1 219.857 182.197 219.772 182.303 219.654C182.758 219.15 183.307 218.281 183.788 217.417C184.28 216.537 184.745 215.596 185.208 214.642C186.128 212.728 186.965 210.731 187.817 208.732C188.66 206.726 189.453 204.691 190.239 202.65L192.606 196.523L196.613 197.456C195.821 201.838 194.796 206.13 193.574 210.438C192.977 212.596 192.286 214.736 191.497 216.896C191.104 217.978 190.664 219.057 190.158 220.157C189.633 221.266 189.112 222.359 188.182 223.629C187.938 223.951 187.661 224.29 187.275 224.665C186.868 225.034 186.397 225.479 185.38 225.9C184.875 226.101 184.172 226.279 183.361 226.249C182.553 226.228 181.733 225.963 181.166 225.638C180.014 224.959 179.616 224.312 179.275 223.826C179.117 223.582 178.981 223.33 178.888 223.149L178.69 222.777L178.295 222.032L177.509 220.541C176.481 218.543 175.474 216.535 174.521 214.504C173.576 212.469 172.656 210.422 171.764 208.36C170.91 206.266 170.065 204.238 169.313 202.011L177.247 199.624Z" fill="#FFA89B"/>
<path d="M173.881 192.609C177.864 193.484 182.339 204.347 182.339 204.347L170.502 213.658C170.502 213.658 162.83 201.813 164.382 197.902C165.998 193.829 168.677 191.464 173.881 192.609Z" fill="#FF725E"/>
<path d="M194.455 193.137L198.61 189.93L201.5 194.086L199.371 197.556C199.371 197.556 195.981 200.421 192.979 198.963C192.01 196.935 192.612 194.56 194.455 193.137Z" fill="#FFA89B"/>
<path d="M206.15 189.939L205.84 190.985L199.257 192.005L198.608 189.93L206.15 189.939Z" fill="#FFA89B"/>
<path d="M168.898 356.207L157.022 349.117L159.149 345.703L172.496 353.277L168.898 356.207Z" fill="#FF725E"/>
<path d="M148.702 361.849C147.758 361.849 146.515 361.296 145.762 360.91C145.694 360.876 145.656 360.808 145.664 360.736C145.671 360.665 145.725 360.606 145.797 360.583C146.118 360.49 148.935 359.693 149.733 360.311C149.859 360.409 149.999 360.59 149.954 360.89C149.896 361.288 149.698 361.57 149.368 361.721C149.176 361.81 148.95 361.849 148.702 361.849ZM146.363 360.802C147.655 361.408 148.695 361.632 149.195 361.403C149.408 361.305 149.531 361.121 149.573 360.842C149.594 360.691 149.537 360.625 149.484 360.585C149.065 360.259 147.503 360.513 146.363 360.802Z" fill="#434343"/>
<path d="M145.857 360.929C145.805 360.929 145.755 360.909 145.718 360.875C145.67 360.829 145.653 360.763 145.671 360.702C145.698 360.614 146.347 358.529 147.415 358.053C147.7 357.928 147.99 357.921 148.272 358.029C148.722 358.204 148.766 358.507 148.751 358.672C148.678 359.535 146.772 360.727 145.902 360.923C145.888 360.927 145.872 360.929 145.857 360.929ZM147.872 358.311C147.776 358.311 147.68 358.333 147.582 358.376C146.945 358.659 146.411 359.784 146.155 360.469C147.07 360.113 148.319 359.171 148.364 358.645C148.371 358.559 148.35 358.448 148.121 358.36C148.038 358.327 147.955 358.311 147.872 358.311Z" fill="#434343"/>
<path d="M163.558 365.998C162.387 365.998 160.755 364.609 159.861 363.756C159.804 363.701 159.79 363.619 159.827 363.551C159.864 363.484 159.958 363.446 160.024 363.454C160.436 363.503 164.053 363.955 164.564 364.897C164.662 365.08 164.654 365.274 164.54 365.459C164.349 365.77 164.071 365.948 163.716 365.99C163.666 365.995 163.612 365.998 163.558 365.998ZM160.546 363.884C161.86 365.063 163.008 365.716 163.669 365.635C163.899 365.608 164.074 365.493 164.204 365.282C164.254 365.202 164.258 365.13 164.218 365.057C163.94 364.544 162.009 364.101 160.546 363.884Z" fill="#434343"/>
<path d="M160.66 363.847C160.393 363.847 160.154 363.832 159.966 363.799C159.899 363.788 159.843 363.744 159.819 363.686C159.796 363.626 159.808 363.559 159.851 363.51C159.911 363.444 161.318 361.878 162.647 361.771C163.063 361.741 163.415 361.843 163.717 362.081C164.126 362.404 164.098 362.692 164.002 362.877C163.672 363.516 161.875 363.847 160.66 363.847ZM160.392 363.487C161.554 363.547 163.411 363.19 163.654 362.723C163.674 362.684 163.736 362.565 163.466 362.352C163.242 362.175 162.982 362.101 162.681 362.126C161.809 362.197 160.834 363.051 160.392 363.487Z" fill="#434343"/>
<path d="M146.142 359.92L137.321 357.618C136.999 357.535 136.676 357.672 136.543 357.949L133.565 364.129C133.256 364.77 133.685 365.565 134.429 365.746C137.519 366.5 139.052 366.72 142.931 367.733C145.318 368.356 148.735 369.494 152.03 370.353C155.253 371.194 156.422 368.251 155.134 367.62C149.354 364.793 148.899 362.855 147.318 360.707C147.033 360.32 146.612 360.043 146.142 359.92Z" fill="#FF725E"/>
<path d="M160.101 362.633L152.572 357.808C152.297 357.632 151.944 357.665 151.719 357.887L146.725 362.837C146.207 363.351 146.333 364.231 146.972 364.625C149.629 366.266 151.001 366.934 154.313 369.057C156.35 370.362 160.416 373.258 163.23 375.061C165.981 376.824 168.124 374.392 167.128 373.408C162.66 369 161.674 366.237 160.936 363.731C160.802 363.28 160.502 362.89 160.101 362.633Z" fill="#FF725E"/>
<path d="M153.998 353.699L140.419 347.47L141.825 344.078L156.318 350.636L153.998 353.699Z" fill="#FF725E"/>
<path d="M136.348 236.269L135.199 239.006C135.083 239.219 135.355 239.436 135.739 239.436H170.145C170.444 239.436 170.691 239.3 170.71 239.127L171.008 236.389C171.029 236.199 170.77 236.039 170.444 236.039H136.887C136.642 236.039 136.423 236.132 136.348 236.269Z" fill="#FF725E"/>
<path opacity="0.4" d="M136.348 236.269L135.199 239.006C135.083 239.219 135.355 239.436 135.739 239.436H170.145C170.444 239.436 170.691 239.3 170.71 239.127L171.008 236.389C171.029 236.199 170.77 236.039 170.444 236.039H136.887C136.642 236.039 136.423 236.132 136.348 236.269Z" fill="white"/>
<path d="M141.76 239.732H140.861C140.682 239.732 140.546 239.646 140.558 239.543L140.98 235.986C140.992 235.882 141.148 235.797 141.328 235.797H142.227C142.405 235.797 142.542 235.882 142.529 235.986L142.108 239.543C142.096 239.647 141.939 239.732 141.76 239.732Z" fill="#FF725E"/>
<path d="M162.983 239.732H162.085C161.906 239.732 161.77 239.646 161.782 239.543L162.203 235.986C162.216 235.882 162.372 235.797 162.552 235.797H163.45C163.629 235.797 163.765 235.882 163.753 235.986L163.332 239.543C163.319 239.647 163.162 239.732 162.983 239.732Z" fill="#FF725E"/>
<path d="M140.968 402.318C156.356 402.318 168.831 401.483 168.831 400.452C168.831 399.421 156.356 398.586 140.968 398.586C125.58 398.586 113.105 399.421 113.105 400.452C113.105 401.483 125.58 402.318 140.968 402.318Z" fill="#D6D6D6"/>
<path d="M157.948 397.818C153.018 396.497 147.593 394.795 144.236 392.986C144.142 392.936 144.043 392.899 143.949 392.853V372.281H153.864C155.504 372.281 156.833 371.054 156.833 369.541C156.833 368.028 155.504 366.801 153.864 366.801H143.949V272.891H138.011V366.801H128.096C126.457 366.801 125.128 368.028 125.128 369.541C125.128 371.054 126.457 372.281 128.096 372.281H138.011V392.852C137.917 392.898 137.818 392.934 137.724 392.985C134.367 394.794 128.941 396.496 124.012 397.817C122.395 398.25 122.736 400.45 124.419 400.45H140.979H157.539C159.224 400.451 159.565 398.251 157.948 397.818Z" fill="#3F7FDD"/>
<path d="M159.473 283.432H122.486C119.523 283.432 117.099 281.194 117.099 278.459V268.309C117.099 265.574 119.523 263.336 122.486 263.336H159.473C162.436 263.336 164.861 265.574 164.861 268.309V278.459C164.861 281.194 162.436 283.432 159.473 283.432Z" fill="#3F7FDD"/>
<path d="M122.146 283.43V285.177C122.146 286.617 123.844 287.796 125.919 287.796H156.04C158.115 287.796 159.813 286.618 159.813 285.177V283.43H122.146Z" fill="#86B1F2"/>
<path opacity="0.3" d="M122.146 283.43V285.177C122.146 286.617 123.844 287.796 125.919 287.796H156.04C158.115 287.796 159.813 286.618 159.813 285.177V283.43H122.146Z" fill="#86B1F2"/>
</svg>
